<?xml version="1.0" encoding="UTF-8"?>
<svg width="512" height="512" viewBox="0 0 512 512" fill="none" xmlns="http://www.w3.org/2000/svg">
  <path d="M256 64C150.4 64 64 150.4 64 256C64 361.6 150.4 448 256 448C361.6 448 448 361.6 448 256C448 150.4 361.6 64 256 64ZM256 416C168.3 416 96 343.7 96 256C96 168.3 168.3 96 256 96C343.7 96 416 168.3 416 256C416 343.7 343.7 416 256 416Z" fill="url(#paint0_linear)"/>
  <path d="M256 128C187.3 128 132 183.3 132 252C132 320.7 187.3 376 256 376C324.7 376 380 320.7 380 252C380 183.3 324.7 128 256 128ZM256 344C204.7 344 164 303.3 164 252C164 200.7 204.7 160 256 160C307.3 160 348 200.7 348 252C348 303.3 307.3 344 256 344Z" fill="url(#paint1_linear)"/>
  <path d="M256 192C222.4 192 196 218.4 196 252C196 285.6 222.4 312 256 312C289.6 312 316 285.6 316 252C316 218.4 289.6 192 256 192ZM256 280C240.5 280 228 267.5 228 252C228 236.5 240.5 224 256 224C271.5 224 284 236.5 284 252C284 267.5 271.5 280 256 280Z" fill="url(#paint2_linear)"/>
  <defs>
    <linearGradient id="paint0_linear" x1="64" y1="256" x2="448" y2="256" gradientUnits="userSpaceOnUse">
      <stop stop-color="#9333EA"/>
      <stop offset="1" stop-color="#7928CA"/>
    </linearGradient>
    <linearGradient id="paint1_linear" x1="132" y1="252" x2="380" y2="252" gradientUnits="userSpaceOnUse">
      <stop stop-color="#9333EA"/>
      <stop offset="1" stop-color="#7928CA"/>
    </linearGradient>
    <linearGradient id="paint2_linear" x1="196" y1="252" x2="316" y2="252" gradientUnits="userSpaceOnUse">
      <stop stop-color="#9333EA"/>
      <stop offset="1" stop-color="#7928CA"/>
    </linearGradient>
  </defs>
</svg>